<svg xmlns="http://www.w3.org/2000/svg" viewBox="0 0 1200 630" role="img" aria-label="Bike Wheelie online">
  <rect width="1200" height="630" fill="#101018"/>
  <path d="M0 456c160-92 327-124 500-95 197 33 359 11 486-65 74-44 145-61 214-50v384H0Z" fill="#18202d"/>
  <path d="M86 500c126-78 258-103 397-74 183 38 329 18 438-58 74-52 139-71 193-58" fill="none" stroke="#ff6a2a" stroke-width="18" stroke-linecap="round"/>
  <circle cx="386" cy="414" r="72" fill="none" stroke="#ff6a2a" stroke-width="24"/>
  <circle cx="674" cy="418" r="72" fill="none" stroke="#20b8d8" stroke-width="24"/>
  <path d="M386 414 512 250l162 168M512 250l78-96M486 250h156" fill="none" stroke="#fff7ed" stroke-width="24" stroke-linecap="round" stroke-linejoin="round"/>
  <path d="M658 126c72 16 124 62 151 135" fill="none" stroke="#ffcf5a" stroke-width="24" stroke-linecap="round"/>
  <text x="80" y="126" font-family="Arial, sans-serif" font-size="72" font-weight="900" fill="#fff7ed">Bike Wheelie</text>
  <text x="84" y="190" font-family="Arial, sans-serif" font-size="32" font-weight="700" fill="#ffcf5a">Hold the angle. Chase a longer run.</text>
</svg>
